<!-- icon666.com - MILLIONS vector ICONS FREE --><svg viewBox="-22 -21 681 681.3342" xmlns="http://www.w3.org/2000/svg"><path d="m598.5 319.710938c0 154.292968-125.082031 279.375-279.375 279.375s-279.375-125.082032-279.375-279.375c0-154.292969 125.082031-279.375 279.375-279.375s279.375 125.082031 279.375 279.375zm0 0" fill="#95d8f9"></path><path d="m236.863281 52.652344c12.972657 7.984375 25.042969 15.964844 31.199219 21.4375 17.222656 15.304687-24.3125 44.390625-24.3125 44.390625s76.789062 1.082031 112.355469 28.109375c27.292969 20.730468 31.109375 43.199218-68.636719 21.378906-72.90625-15.953125-102.152344 16.667969-86.429688 31.976562 15.714844 15.308594 72.304688 13.398438 99.09375 11.480469 26.789063-1.914062 28.703126 13.398438 57.40625 40.1875 28.703126 26.792969 9.566407 51.664063-42.175781 57.40625-51.746093 5.742188-63.070312 36.359375-64.980469 61.238281-1.917968 24.878907 11.480469 32.527344 17.222657 51.664063 5.738281 19.140625 1.910156 51.667969-22.964844 63.148437-24.878906 11.484376-57.40625-26.785156-66.789063-36.351562-9.375-9.574219-9.753906-55.5-15.496093-68.894531-5.742188-13.390625-44.589844-44.449219-44.589844-44.449219s73.292969-70.367188 57.984375-93.328125c-15.308594-22.964844-36.359375-11.480469-70.800781 22.960937-13.976563 13.976563-37.277344 10.308594-60.027344 1.015626 19.761719-101.515626 94.480469-183.386719 191.941406-213.371094zm0 0" fill="#45bf7f"></path><path d="m319.125 40.335938c-5.652344 0-11.257812.191406-16.828125.515624 146.457031 8.710938 262.542969 130.214844 262.542969 278.859376 0 148.640624-116.085938 270.152343-262.542969 278.855468 5.570313.332032 11.175781.519532 16.828125.519532 154.292969 0 279.375-125.082032 279.375-279.375 0-154.292969-125.082031-279.375-279.375-279.375zm0 0" fill="#6ec7ea"></path><path d="m448.832031 427.050781c22.203125-42.816406 68.195313-4.757812 68.195313-41.234375 0-32.253906 37.5625-59.144531 81.457031-64.851562-.636719 144.039062-110.261719 262.34375-250.671875 276.664062.039062-.039062 35.996094-69.078125 76.371094-74.90625 24.324218-3.519531 2.445312-52.851562 24.648437-95.671875zm0 0" fill="#45bf7f"></path><path d="m564.628906 330.046875c-4.617187 126.988281-93.984375 232.339844-213.234375 261.195313-2.308593 3.960937-3.578125 6.378906-3.582031 6.386718 140.410156-14.320312 250.035156-132.625 250.671875-276.664062-11.96875 1.558594-23.460937 4.695312-33.855469 9.082031zm0 0" fill="#00a860"></path><path d="m409.269531 426.121094c-9.4375 22.03125-36.117187 7.265625-58.148437-2.175782-22.03125-9.4375-36.09375-50.542968-26.65625-72.578124 9.441406-22.03125 34.269531-6.0625 56.300781 3.378906 22.03125 9.4375 37.945313 49.339844 28.503906 71.375zm0 0" fill="#45bf7f"></path><path d="m208.65625 423.121094s-28.894531 49.441406-99.238281 50.34375c-18.503907.238281-33.78125-2.285156-46.355469-6.6875v56.449218c0 58.636719 47.535156 106.171876 106.175781 106.171876 58.636719 0 106.171875-47.535157 106.171875-106.171876v-48.402343c-.007812-.003907-42.660156-12.804688-66.753906-51.703125zm0 0" fill="#ffc89f"></path><path d="m241.75 457.546875v65.679687c0 52.90625-38.703125 96.765626-89.347656 104.832032 5.484375.878906 11.101562 1.339844 16.835937 1.339844 58.632813 0 106.171875-47.535157 106.171875-106.171876v-48.402343c-.003906-.003907-15.835937-4.765625-33.660156-17.277344zm0 0" fill="#f7bc94"></path><path d="m551.910156 113.941406c-19.96875 37.085938-63.332031 41.082032-63.332031 41.082032 3.992187-18.832032-10.84375-36.515626-10.84375-36.515626-34.945313 39.441407-84.074219 40.765626-95.8125 40.484376-.816406-.019532-1.625-.097657-2.425781-.214844v48.582031c0 58.59375 47.496094 106.09375 106.09375 106.09375 58.59375 0 106.09375-47.5 106.09375-106.09375v-48.484375c-20.703125-11.554688-39.773438-44.933594-39.773438-44.933594zm0 0" fill="#ffc89f"></path><path d="m558.027344 123.628906v83.730469c0 52.863281-38.675782 96.683594-89.269532 104.753906 5.484376.875 11.101563 1.339844 16.832032 1.339844 58.597656 0 106.097656-47.5 106.097656-106.09375v-48.484375c-13.554688-7.558594-26.398438-24.464844-33.660156-35.246094zm0 0" fill="#f7bc94"></path><path d="m63.0625 523.226562v-48.402343c-2.609375-.789063-5.367188-1.214844-8.226562-1.214844-15.664063 0-28.359376 12.695313-28.359376 28.351563 0 15.664062 12.695313 28.359374 28.359376 28.359374 2.917968 0 5.734374-.445312 8.386718-1.261718-.105468-1.929688-.160156-3.875-.160156-5.832032zm0 0" fill="#eaa37d"></path><path d="m275.410156 523.226562v-48.402343c2.601563-.789063 5.367188-1.214844 8.226563-1.214844 15.664062 0 28.359375 12.695313 28.359375 28.351563 0 15.664062-12.695313 28.359374-28.359375 28.359374-2.917969 0-5.734375-.445312-8.386719-1.261718.105469-1.929688.160156-3.875.160156-5.832032zm0 0" fill="#eaa37d"></path><path d="m208.65625 423.121094s-23.15625 39.625-78.480469 48.574218c-6.476562 1.046876-13.390625 1.675782-20.757812 1.769532-87.769531 1.128906-103.21875-59.6875-99.480469-90.082032 0 0 32.667969 19.554688 46.882812 7.632813 14.210938-11.921875 45.578126-61.800781 101.34375-64.121094 56.246094-2.339843 67.128907 24.484375 67.128907 24.484375s32.535156-11.308594 52.925781 9.28125c36.742188 37.101563 18.835938 98.839844-2.808594 114.164063 0 0-42.660156-12.796875-66.753906-51.703125zm0 0" fill="#6e563d"></path><path d="m241.75 457.546875c17.824219 12.511719 33.660156 17.277344 33.660156 17.277344 21.644532-15.328125 39.550782-77.066407 2.808594-114.164063-20.394531-20.589844-52.925781-9.285156-52.925781-9.285156 70.226562 47.5 16.457031 106.171875 16.457031 106.171875zm0 0" fill="#634c38"></path><path d="m591.6875 207.28125v-48.40625c2.601562-.785156 5.359375-1.214844 8.21875-1.214844 15.664062 0 28.359375 12.695313 28.359375 28.359375 0 15.65625-12.695313 28.355469-28.359375 28.355469-2.917969 0-5.734375-.441406-8.386719-1.261719.109375-1.933593.167969-3.878906.167969-5.832031zm0 0" fill="#eaa37d"></path><path d="m379.496094 207.359375v-48.472656c-2.519532-.699219-5.171875-1.09375-7.921875-1.09375-15.933594 0-28.855469 12.675781-28.855469 28.308593 0 15.632813 12.921875 28.308594 28.855469 28.308594 2.8125 0 5.523437-.410156 8.089843-1.144531-.105468-1.957031-.167968-3.925781-.167968-5.90625zm0 0" fill="#eaa37d"></path><path d="m591.6875 158.875c-20.707031-11.554688-39.777344-44.933594-39.777344-44.933594-19.96875 37.085938-63.332031 41.082032-63.332031 41.082032 3.992187-18.832032-10.84375-36.515626-10.84375-36.515626-34.945313 39.441407-84.074219 40.765626-95.8125 40.484376-1.785156-.046876-3.546875-.328126-5.257813-.839844-27.351562-8.152344-55.128906-39.097656-55.128906-39.097656 39.585938 1.1875 58.734375-23.808594 58.734375-23.808594-40.453125 1.195312-43.222656-39.441406-43.222656-39.441406 61 7.746093 73.203125-27.375 127-42.847657 53.789063-15.46875 91.875 24.484375 91.875 24.484375s54.523437-5.121094 59.195313 48.996094c4.472656 51.726562-23.429688 72.4375-23.429688 72.4375" fill="#ffa035"></path><path d="m558.027344 123.628906c7.261718 10.78125 20.105468 27.6875 33.660156 35.246094 0 0 27.902344-20.710938 23.429688-72.441406-4.671876-54.121094-59.195313-48.992188-59.195313-48.992188 39.207031 38.753906 2.105469 86.1875 2.105469 86.1875zm0 0" fill="#f78819"></path><path d="m384.445312 346.148438c-3.070312-1.316407-6.175781-2.746094-9.457031-4.273438-15.269531-7.066406-31.054687-14.371094-44.4375-9.238281-6.539062 2.507812-11.476562 7.570312-14.675781 15.050781-11.828125 27.597656 5.285156 73.59375 31.5625 84.851562 2.1875.9375 4.421875 1.929688 6.675781 2.925782 12.816407 5.683594 25.960938 11.511718 37.882813 11.511718 3.792968 0 7.464844-.59375 10.957031-1.964843 6.695313-2.628907 11.710937-7.75 14.910156-15.210938 11.496094-26.824219-6.621093-72.171875-33.417969-83.652343zm16.226563 76.285156c-1.558594 3.648437-3.347656 4.703125-4.554687 5.175781-7.203126 2.828125-22.300782-3.863281-34.421876-9.234375-2.332031-1.03125-4.636718-2.054688-6.894531-3.019531-16.53125-7.085938-29.328125-42.589844-21.738281-60.304688 1.714844-4.003906 3.507812-4.695312 4.183594-4.953125.898437-.347656 1.957031-.503906 3.140625-.503906 6.757812 0 17.695312 5.0625 26.742187 9.253906 3.265625 1.511719 6.632813 3.070313 9.953125 4.488282 17.382813 7.453124 31.050781 41.691406 23.589844 59.097656zm0 0"></path><path d="m115.863281 505.292969c-8.707031 0-15.792969 7.082031-15.792969 15.792969 0 8.710937 7.085938 15.796874 15.792969 15.796874 8.710938 0 15.796875-7.085937 15.796875-15.796874 0-8.710938-7.085937-15.792969-15.796875-15.792969zm0 0"></path><path d="m222.609375 505.292969c-8.710937 0-15.796875 7.082031-15.796875 15.792969 0 8.710937 7.085938 15.796874 15.796875 15.796874 8.707031 0 15.792969-7.085937 15.792969-15.796874 0-8.710938-7.085938-15.792969-15.792969-15.792969zm0 0"></path><path d="m194.597656 533.859375c-4.933594-1.542969-10.175781 1.199219-11.714844 6.125-1.878906 5.992187-7.359374 10.015625-13.644531 10.015625-6.285156 0-11.769531-4.023438-13.640625-10.015625-1.546875-4.925781-6.796875-7.671875-11.722656-6.125-4.925781 1.542969-7.667969 6.789063-6.125 11.714844 4.332031 13.835937 16.988281 23.125 31.488281 23.125s27.15625-9.296875 31.488281-23.125c1.539063-4.925781-1.203124-10.171875-6.128906-11.714844zm0 0"></path><path d="m432.136719 220.933594c8.707031 0 15.792969-7.085938 15.792969-15.792969s-7.085938-15.800781-15.792969-15.800781c-8.710938 0-15.796875 7.09375-15.796875 15.800781s7.085937 15.792969 15.796875 15.792969zm0 0"></path><path d="m538.878906 220.933594c8.710938 0 15.796875-7.085938 15.796875-15.792969s-7.085937-15.800781-15.796875-15.800781c-8.707031 0-15.792968 7.09375-15.792968 15.800781s7.085937 15.792969 15.792968 15.792969zm0 0"></path><path d="m485.507812 252.753906c14.503907 0 27.152344-9.292968 31.484376-23.128906 1.546874-4.929688-1.195313-10.171875-6.125-11.714844-4.929688-1.542968-10.175782 1.203125-11.714844 6.128906-1.875 5.988282-7.359375 10.015626-13.644532 10.015626-6.28125 0-11.765624-4.027344-13.640624-10.015626-1.542969-4.933593-6.792969-7.675781-11.71875-6.128906-4.929688 1.542969-7.671876 6.792969-6.128907 11.71875 4.335938 13.832032 16.984375 23.125 31.488281 23.125zm0 0"></path><path d="m599.90625 223.722656c20.796875 0 37.707031-16.914062 37.707031-37.703125 0-16.859375-11.113281-31.160156-26.398437-35.976562 7.960937-12.859375 15.867187-33.765625 13.21875-64.414063-1.597656-18.460937-8.53125-32.933594-20.609375-43.011718-15.632813-13.046876-35.417969-14.65625-44.226563-14.65625-.027344 0-.046875 0-.070312 0-10.816406-9.746094-48.007813-38.386719-98.070313-23.988282-21.769531 6.261719-37.1875 15.613282-50.789062 23.867188-7.269531 4.410156-14.015625 8.503906-21.128907 11.804687-22.910156-5.742187-46.578124-8.65625-70.414062-8.65625-86.964844 0-168.457031 38.640625-223.578125 106.019531-3.269531 3.996094-2.679687 9.886719 1.316406 13.15625 1.738281 1.425782 3.835938 2.109376 5.917969 2.109376 2.707031 0 5.394531-1.167969 7.238281-3.425782 33.320313-40.722656 76.941407-70.203125 125.578125-85.976562 15.910156 9.929687 23.058594 15.359375 26.253906 18.207031 1.023438.910156 1.078126 1.425781 1.039063 2.113281-.402344 7.082032-14.492187 20.597656-24.503906 27.632813-3.320313 2.324219-4.765625 6.527343-3.570313 10.402343 1.195313 3.878907 4.75 6.546876 8.804688 6.605469.566406.003907 56.84375.992188 93.121094 18.082031 3.96875 3.179688 8.308593 6.390626 12.898437 9.378907-4.449219 3.089843-8.203125 7.085937-10.976563 11.714843-12.84375-1.09375-29.34375-3.832031-49.199218-8.171874-24.5625-5.375-47.035156-5.925782-64.984375-1.601563-16.375 3.953125-28.410157 11.742187-33.898438 21.929687-5.152343 9.574219-3.640625 20.105469 3.933594 27.480469 17.15625 16.710938 67.269531 16.898438 106.285156 14.109375 14.394531-1.019531 18.375 3.445313 30.203125 16.714844 5.113282 5.738281 11.472656 12.875 20.15625 20.980469 4.765625 4.445312 12.390625 13.042969 9.878906 20.597656-3.9375 11.878906-27.621093 18.5625-46.707031 20.679687-32.421875 3.597657-54.394531 16.800782-65.441406 39.273438-7.6875-.351562-14.585937.617188-19.449219 1.632812-2.476562-3.050781-6.152344-6.679687-11.480468-10.191406-14.617188-9.605468-34.863282-13.953125-60.183594-12.890625-3.8125.164063-7.507813.546875-11.113282 1.09375 4.253907-4.769531 8.742188-10.015625 13.128907-15.476562 25.3125-31.5625 32.855469-52.632813 23.738281-66.308594-6.453125-9.683594-14.425781-15.050781-23.699219-15.972656-18.105469-1.808594-37.6875 13.699219-61.496093 37.507812-9.753907 9.753907-27.378907 6.960938-42.609376 1.710938 6.6875-29.667969 18.359376-58.074219 34.695313-84.023438 2.746094-4.371093 1.4375-10.148437-2.933594-12.894531-4.367187-2.75-10.144531-1.4375-12.894531 2.933594-18.988281 30.167968-32.101562 63.433594-38.859375 98.167968-.007813.007813-.007813.019532-.007813.027344-3.53125 18.140625-5.332031 36.683594-5.332031 55.394532 0 21.972656 2.484375 43.78125 7.367188 65.011718-7.578125-1.652344-16.535157-5.503906-23.023438-9.367187-2.714843-1.625-6.066406-1.765625-8.90625-.375-2.84375 1.386719-4.792969 4.117187-5.175781 7.253906-2.339844 19.046875 2.070312 47.113281 21.464844 68.753906 5.542968 6.179688 11.929687 11.433594 19.089844 15.824219-14.074219 5.476562-24.085938 19.160156-24.085938 35.148438 0 20.792968 16.917969 37.707031 37.710938 37.707031h.046874c8.007813 55.941406 56.230469 99.082031 114.347657 99.082031 33.710937 0 64.089843-14.515625 85.230469-37.617188 21.101562 4.824219 42.820312 7.300782 64.65625 7.300782 9.898437 0 19.71875-.507813 29.425781-1.492188.132812-.007812.257812-.023437.386719-.039062 86.386718-8.867188 164.273437-56.023438 212.359374-129.914063 2.816407-4.332031 1.589844-10.125-2.734374-12.941406-4.332032-2.816406-10.125-1.585937-12.941407 2.742187-41.464843 63.722657-106.625 106.15625-179.863281 118.898438 14.691406-22.644531 37.953125-50.566406 59.761719-53.714844 6.632812-.960937 15.277343-4.816406 18.832031-17.734375 1.988281-7.230469 2.148438-16 2.339844-26.15625.308594-16.898437.695312-37.925781 10.445312-56.726562 8.96875-17.296875 22.0625-17.636719 35.921875-18 7.726563-.199219 15.019531-.382813 21.320313-3.722657 7.964844-4.214843 12.003906-12.230468 12.003906-23.816406 0-23.503906 26.679688-45.832031 62.46875-53.6875-1.628906 36.636719-10.484375 71.867188-26.429688 104.871094-2.246093 4.652344-.296874 10.242188 4.351563 12.488281 1.308594.632813 2.695313.933594 4.058594.933594 3.476562 0 6.8125-1.949219 8.425781-5.285156 18.976562-39.285157 28.597656-81.484375 28.597656-125.425781 0-27.320313-3.820312-54.328126-11.335937-80.332032 1.464843-5.082031 2.59375-10.316406 3.351562-15.65625zm-247.835938-37.621094c0-9.984374 7.988282-18.171874 18.070313-18.890624v37.777343c-10.082031-.714843-18.070313-8.902343-18.070313-18.886719zm36.921876 26.515626c-.003907-.039063-.003907-.078126-.007813-.117188-.089844-1.703125-.136719-3.417969-.136719-5.140625v-39.082031c18.449219-.664063 56.121094-5.875 87.273438-34.757813 2.589844 5.382813 4.804687 12.527344 3.308594 19.566407-.613282 2.902343.1875 5.929687 2.160156 8.152343 1.972656 2.214844 4.890625 3.355469 7.84375 3.09375 1.75-.160156 38.574218-3.902343 62.3125-33.3125 7.082031 10.226563 18.207031 24.363281 30.589844 32.992188v43.347656c0 53.347656-43.402344 96.742187-96.75 96.742187-51.578126.003907-93.855469-40.574218-96.59375-91.484374zm229.921874-26.597657c0 10.09375-7.925781 18.359375-17.878906 18.945313v-37.898438c9.953125.589844 17.878906 8.847656 17.878906 18.953125zm-198.546874-142.195312c13.214843-8.015625 26.886718-16.308594 46.261718-21.878907 47.480469-13.65625 81.136719 20.503907 82.523438 21.941407 1.960937 2.058593 4.78125 3.105469 7.613281 2.867187.121094-.015625 12.136719-.984375 24.160156 3.816406 15.128907 6.042969 23.265625 18.039063 24.878907 36.664063 1.648437 19.109375-1.179688 35.71875-8.410157 49.367187-2.359375 4.449219-4.824219 7.84375-6.859375 10.253907-13.253906-10.414063-26.171875-29.976563-30.511718-37.554688-1.683594-2.945312-4.882813-4.765625-8.234376-4.707031-3.398437.046875-6.503906 1.925781-8.113281 4.917969-11.574219 21.492187-32.632812 30.425781-45.355469 33.988281-1.898437-17.042969-12.847656-30.308594-13.425781-31-1.746093-2.082031-4.3125-3.304688-7.039062-3.339844-2.675781-.078125-5.316407 1.113282-7.125 3.148438-32.597657 36.789062-79.511719 37.554687-88.582031 37.335937-.949219-.023437-1.898438-.175781-2.820313-.453125-13.109375-3.910156-26.707031-14.003906-36.535156-22.570312 29.453125-5.988282 44.152343-24.726563 44.894531-25.691406 2.191406-2.859376 2.542969-6.734376.898438-9.945313-1.644532-3.210937-4.988282-5.199219-8.597657-5.082031-19.140625.582031-27.433593-10.628906-30.992187-19.726563 32.597656 1.167969 51.484375-10.285156 71.371094-22.351562zm-146.09375 23.277343c-3.296876-2.933593-8.097657-6.53125-14.496094-10.863281 19.269531-4.320312 39.148437-6.550781 59.347656-6.550781 3.5625 0 7.117188.09375 10.671875.230469-1.476563 1.828125-2.238281 4.152343-2.070313 6.523437.910157 13.402344 8.765626 35.957032 30.808594 44.636719-8.414062 4.777344-20.59375 9.121094-36.714844 8.628906-3.722656-.09375-7.191406 2.011719-8.761718 5.40625-.421875.910157-.675782 1.859375-.792969 2.820313-16.230469-3.980469-32.433594-6.175782-45.003906-7.367188 7.175781-7.570312 13.757812-16.957031 14.300781-26.289062.378906-6.660156-2.136719-12.601563-7.289062-17.175782zm-162.71875 204.519532c14.347656-14.347656 34.820312-33.285156 46.433593-32.125 2.21875.21875 5.667969 1.261718 9.980469 7.734375 1.992188 2.988281-.179688 16.054687-22.664062 44.117187-15.839844 19.765625-33.835938 37.105469-34.015626 37.277344-.957031.921875-1.691406 2.023438-2.183593 3.222656-21.988281 12.414063-37.976563 30.125-48.429688 41.707032-1.808593 2.003906-3.496093 3.871093-5.03125 5.511718-4.347656-19.390625-6.550781-39.300781-6.550781-59.355468 0-13.820313 1.058594-27.542969 3.128906-41.058594 26.21875 8.5 46.152344 6.152344 59.332032-7.03125zm-75.722657 230.339844c0-10.097657 7.921875-18.359376 17.878907-18.945313v37.898437c-9.957032-.589843-17.878907-8.847656-17.878907-18.953124zm133.40625 118.089843c-53.394531 0-96.828125-43.433593-96.828125-96.824219v-44.03125c11.230469 2.558594 23.601563 3.789063 37.128906 3.621094 5.164063-.070312 9.292969-4.308594 9.226563-9.46875-.066406-5.121094-4.238281-9.230468-9.34375-9.230468-.042969 0-.082031 0-.125 0-16.207031.214843-30.367187-1.769532-42.449219-5.886719-.441406-.195313-.902344-.351563-1.375-.476563-11.921875-4.285156-21.761718-10.699218-29.421875-19.246094-10.992187-12.261718-15.84375-27.164062-17.003906-40.136718 13 5.398437 31.589844 10.035156 43.78125-.195313 3.371094-2.824219 7.0625-6.917969 11.730469-12.09375 16.246094-18.011719 43.441406-48.160156 83.996094-49.84375 25.441406-1.054687 40.015624 4.292969 47.761718 8.96875 7.402344 4.46875 9.953125 9.011719 10.351563 9.785157 1.730469 4.808593 6.863281 6.898437 11.691406 5.214843.179687-.058593 11.792969-3.984375 24.296875-2.113281.382812.085938.757812.152344 1.136719.195312 6.214843 1.101563 12.566406 3.6875 17.777343 8.953126 18.328126 18.496093 19.21875 42.367187 18.125 54.949218-1.25 14.292969-7.238281 32.691406-16.234374 42-11.0625-4.367187-39.386719-17.78125-56.855469-45.992187-1.707031-2.753907-4.714844-4.429688-7.949219-4.429688-.039062 0-.078125 0-.117188.007813-3.28125.039062-6.300781 1.792968-7.953124 4.628906-.171876.28125-17.191407 28.757812-56.859376 40.621094-4.949218 1.476562-7.761718 6.6875-6.277343 11.632812 1.480469 4.949219 6.691406 7.757813 11.636719 6.28125 30.28125-9.058594 49.398437-26.441406 59.316406-37.917968 19.726562 25.019531 45.605468 37.550781 57.65625 42.355468v41.847656c.003906 53.390626-43.433594 96.824219-96.820313 96.824219zm115.523438-137.035156c9.957031.585937 17.878906 8.847656 17.878906 18.945313 0 10.105468-7.921875 18.363281-17.878906 18.953124zm304.296875-170c-46.933594 8.816406-81.382813 39.128906-81.382813 72.800781 0 8.460938-1.140625 8.492188-15.101562 8.851563-15.132813.394531-37.996094.984375-52.042969 28.078125-11.761719 22.6875-12.195312 46.144531-12.542969 64.996094-.164062 8.894531-.308593 16.574218-1.675781 21.539062-1.054688 3.835938-2.066406 3.984375-3.46875 4.1875-38.285156 5.527344-70.414062 56.828125-80.820312 75.277344-7.578126.636718-15.210938.988281-22.90625.988281-17.550782 0-35.015626-1.714844-52.109376-5.050781 8.460938-13.410156 14.234376-28.660156 16.574219-45.015625.019531 0 .035157.003906.050781.003906 20.792969 0 37.707032-16.914063 37.707032-37.710937 0-16.757813-10.992188-30.992188-26.148438-35.886719 6.929688-11.566407 11.765625-26.636719 13.128906-42.253907 2.382813-27.292968-5.949218-52.058593-23.460937-69.738281-5.164063-5.21875-10.90625-8.75-16.75-11.089843 8.871094-13.949219 24.757813-22.066407 48.285156-24.679688 34.363281-3.8125 56.519531-15.664062 62.398438-33.375 2.480469-7.496094 3.855469-22.675781-14.875-40.15625-8.054688-7.519531-13.84375-14.015625-18.957031-19.753906-12.726563-14.28125-21.917969-24.617188-45.496094-22.921875-46.867188 3.347656-82.941406-.128907-91.90625-8.855469-1.050782-1.027344-2.050782-2.363281-.511719-5.21875 5.230469-9.714844 31.152344-21.277344 78.421875-10.929688 18.796875 4.109376 34.84375 6.851563 47.917969 8.183594-.003907.273438-.019531.542969-.019531.816406 0 20.675782 17 37.507813 37.945312 37.648438 7.980469 55.917969 56.183594 99.050781 114.273438 99.050781 41.640624 0 78.195312-22.160156 98.507812-55.304687 2.929688 14.949218 4.589844 30.167968 4.964844 45.519531zm0 0"></path></svg>