<!-- icon666.com - MILLIONS vector ICONS FREE --><svg viewBox="-56 0 480 480" xmlns="http://www.w3.org/2000/svg"><path d="m288 416c-3.527344.003906-6.640625-2.300781-7.664062-5.675781-1.023438-3.375.28125-7.023438 3.214843-8.980469l20.449219-13.625v-27.71875c0-4.417969 3.582031-8 8-8s8 3.582031 8 8v32c0 2.675781-1.335938 5.171875-3.558594 6.65625l-24 16c-1.316406.875-2.859375 1.34375-4.441406 1.34375zm0 0" fill="#cfdfe8"></path><path d="m312 304c-4.417969 0-8-3.582031-8-8v-56c0-4.417969 3.582031-8 8-8h24v-40c0-4.417969 3.582031-8 8-8s8 3.582031 8 8v48c0 4.417969-3.582031 8-8 8h-24v48c0 4.417969-3.582031 8-8 8zm0 0" fill="#cfdfe8"></path><path d="m296 296h32v64h-32zm0 0" fill="#e97424"></path><path d="m312 112h32c8.835938 0 16 7.164062 16 16v48c0 8.835938-7.164062 16-16 16h-32zm0 0" fill="#e97424"></path><path d="m328 160h-16c-4.417969 0-8-3.582031-8-8s3.582031-8 8-8h16c4.417969 0 8 3.582031 8 8s-3.582031 8-8 8zm0 0" fill="#2d75bb"></path><path d="m24 8h256c8.835938 0 16 7.164062 16 16s-7.164062 16-16 16h-256c-8.835938 0-16-7.164062-16-16s7.164062-16 16-16zm0 0" fill="#ffd782"></path><path d="m40 40h224v400h-224zm0 0" fill="#dd3e46"></path><path d="m40 440h224c17.671875 0 32 14.328125 32 32h-288c0-17.671875 14.328125-32 32-32zm0 0" fill="#5a6470"></path><path d="m72 88h160v96h-160zm0 0" fill="#cfdfe8"></path><path d="m200 312c0 26.507812-21.492188 48-48 48s-48-21.492188-48-48c0-26.511719 48-88 48-88s48 61.488281 48 88zm0 0" fill="#fcf05a"></path><g fill="#5a6470"><path d="m160 160h-56c-4.417969 0-8-3.582031-8-8s3.582031-8 8-8h56c4.417969 0 8 3.582031 8 8s-3.582031 8-8 8zm0 0"></path><path d="m200 160h-8c-4.417969 0-8-3.582031-8-8s3.582031-8 8-8h8c4.417969 0 8 3.582031 8 8s-3.582031 8-8 8zm0 0"></path><path d="m264 96h48v112h-48zm0 0"></path></g><path d="m0 472c0 4.417969 3.582031 8 8 8h288c4.417969 0 8-3.582031 8-8-.023438-19-13.386719-35.371094-32-39.199219v-216.800781h40c4.417969 0 8-3.582031 8-8v-8h16v32h-24c-4.417969 0-8 3.582031-8 8v48h-8c-4.417969 0-8 3.582031-8 8v64c0 4.417969 3.582031 8 8 8h8v19.71875l-20.441406 13.601562c-3.675782 2.453126-4.667969 7.417969-2.214844 11.09375 2.453125 3.679688 7.421875 4.671876 11.097656 2.21875l24-16c2.214844-1.480468 3.550782-3.96875 3.558594-6.632812v-24h8c4.417969 0 8-3.582031 8-8v-64c0-4.417969-3.582031-8-8-8h-8v-40h24c4.417969 0 8-3.582031 8-8v-41.472656c9.554688-3.378906 15.957031-12.394532 16-22.527344v-48c0-13.253906-10.746094-24-24-24h-24v-8c0-4.417969-3.582031-8-8-8h-40v-40h8c13.253906 0 24-10.746094 24-24s-10.746094-24-24-24h-256c-13.253906 0-24 10.746094-24 24s10.746094 24 24 24h8v384.800781c-18.613281 3.828125-31.9765625 20.199219-32 39.199219zm320-120h-16v-48h16zm-33.367188 112h-269.265624c3.402343-9.582031 12.464843-15.988281 22.632812-16h224c10.167969.011719 19.230469 6.417969 22.632812 16zm57.367188-344c4.417969 0 8 3.582031 8 8v48c0 4.417969-3.582031 8-8 8h-24v-24h8c4.417969 0 8-3.582031 8-8s-3.582031-8-8-8h-8v-24zm-40-16v96h-32v-96zm-288-80c0-4.417969 3.582031-8 8-8h256c4.417969 0 8 3.582031 8 8s-3.582031 8-8 8h-256c-4.417969 0-8-3.582031-8-8zm240 24v384h-208v-384zm0 0"></path><path d="m72 192h160c4.417969 0 8-3.582031 8-8v-96c0-4.417969-3.582031-8-8-8h-160c-4.417969 0-8 3.582031-8 8v96c0 4.417969 3.582031 8 8 8zm8-96h144v80h-144zm0 0"></path><path d="m145.695312 219.078125c-5.085937 6.523437-49.695312 64.480469-49.695312 92.921875 0 30.929688 25.070312 56 56 56s56-25.070312 56-56c0-28.441406-44.609375-86.398438-49.695312-92.921875-1.570313-1.851563-3.875-2.917969-6.304688-2.917969s-4.734375 1.066406-6.304688 2.917969zm6.304688 132.921875c-22.082031-.027344-39.972656-17.917969-40-40 0-15.367188 22.441406-50.921875 40-74.753906 17.601562 23.824218 40 59.371094 40 74.753906-.027344 22.082031-17.917969 39.972656-40 40zm0 0"></path><path d="m160 144h-56c-4.417969 0-8 3.582031-8 8s3.582031 8 8 8h56c4.417969 0 8-3.582031 8-8s-3.582031-8-8-8zm0 0"></path><path d="m200 144h-8c-4.417969 0-8 3.582031-8 8s3.582031 8 8 8h8c4.417969 0 8-3.582031 8-8s-3.582031-8-8-8zm0 0"></path></svg>